<svg width="500" height="500" viewBox="0 0 10000 10000" fill="none" xmlns="http://www.w3.org/2000/svg">
<path d="M5187.38 875.591L4999.5 767.121L4811.62 875.591L1522.03 2774.84L1334.15 2883.31V3100.25V6898.75V7115.69L1522.03 7224.16L4811.62 9123.41L4999.5 9231.88L5187.38 9123.41L8476.97 7224.16L8664.85 7115.69V6898.75V3100.25V2883.31L8476.97 2774.84L5187.38 875.591Z" stroke="url(#paint0_linear_99_2)" stroke-width="751.5"/>
<path d="M4978.33 3154.03C4827.82 3154.73 4684.09 3167.57 4557.62 3189.96C4185.05 3255.81 4117.4 3393.64 4117.4 3647.82V3983.52H4997.83V4095.42H4117.4H3786.99C3531.11 4095.42 3307.06 4249.29 3236.98 4541.99C3156.14 4877.5 3152.56 5086.86 3236.98 5437.18C3299.56 5697.95 3449.02 5883.75 3704.9 5883.75H4007.61V5481.33C4007.61 5190.6 4259.04 4934.15 4557.62 4934.15H5437.01C5681.81 4934.15 5877.23 4732.51 5877.23 4486.55V3647.82C5877.23 3409.12 5675.94 3229.8 5437.01 3189.96C5285.77 3164.77 5128.84 3153.33 4978.33 3154.03ZM4502.21 3424.03C4593.15 3424.03 4667.41 3499.54 4667.41 3592.39C4667.41 3684.91 4593.15 3759.72 4502.21 3759.72C4410.94 3759.72 4337 3684.91 4337 3592.39C4337 3499.54 4410.94 3424.03 4502.21 3424.03Z" fill="url(#paint1_linear_99_2)"/>
<path d="M5987.02 4095.42V4486.56C5987.02 4789.8 5730.05 5045.02 5437.01 5045.03H4557.62C4316.73 5045.03 4117.4 5251.28 4117.4 5492.62V6331.35C4117.4 6570.06 4324.88 6710.46 4557.62 6778.95C4836.31 6860.93 5103.56 6875.75 5437.01 6778.95C5658.67 6714.75 5877.23 6585.53 5877.23 6331.35V5995.65H4997.83V5883.76H5877.23H6317.44C6573.32 5883.76 6668.67 5705.2 6757.65 5437.19C6849.57 5161.27 6845.66 4895.94 6757.65 4541.99C6694.42 4287.15 6573.64 4095.42 6317.44 4095.42H5987.02ZM5492.43 6219.45C5583.69 6219.45 5657.63 6294.27 5657.63 6386.79C5657.63 6479.64 5583.69 6555.15 5492.43 6555.15C5401.48 6555.15 5327.22 6479.64 5327.22 6386.79C5327.22 6294.27 5401.48 6219.45 5492.43 6219.45Z" fill="url(#paint2_linear_99_2)"/>
<defs>
<linearGradient id="paint0_linear_99_2" x1="4999.5" y1="1201" x2="-2431" y2="-4483.5" gradientUnits="userSpaceOnUse">
<stop stop-color="#5A9FD4"/>
<stop offset="1" stop-color="#61DAFB"/>
</linearGradient>
<linearGradient id="paint1_linear_99_2" x1="3175" y1="3154" x2="5205.93" y2="4883.86" gradientUnits="userSpaceOnUse">
<stop stop-color="#5A9FD4"/>
<stop offset="1" stop-color="#306998"/>
</linearGradient>
<linearGradient id="paint2_linear_99_2" x1="5471.27" y1="6358.57" x2="4742.49" y2="5337.79" gradientUnits="userSpaceOnUse">
<stop stop-color="#FFD43B"/>
<stop offset="1" stop-color="#FFE873"/>
</linearGradient>
</defs>
</svg>
